<svg xmlns="http://www.w3.org/2000/svg" width="136" height="68" viewBox="0 0 136 68" fill="none">
    <g clip-path="url(#clip0_3888_16370)">
        <path
            d="M3.98662 60.2385C4.55189 59.9163 5.21833 59.8387 6.05137 60.0117C6.33103 60.0654 6.6345 60.1848 6.96771 60.3638C7.29498 60.5428 7.6163 60.5965 7.92571 60.5249C8.23513 60.4533 8.47314 60.2982 8.6457 60.0655C8.82421 59.8208 8.88966 59.5404 8.83016 59.242C8.77065 58.9377 8.56834 58.6692 8.21133 58.4484C7.79481 58.1858 7.30688 57.9949 6.7654 57.8696C5.26593 57.5354 3.95091 57.6727 2.82036 58.2694C2.08252 58.6572 1.48154 59.2181 1.03527 59.9401C0.583045 60.6621 0.356934 61.5214 0.356934 62.4881C0.356934 63.4547 0.588995 64.3498 1.04717 65.0658C1.49939 65.7818 2.11227 66.3368 2.86201 66.7246C3.58795 67.1005 4.38528 67.2915 5.23618 67.2915C5.7241 67.2915 6.24773 67.2318 6.80706 67.0886C7.33663 66.9514 7.81266 66.7604 8.21728 66.5098C8.5743 66.2831 8.7766 66.0146 8.82421 65.7043C8.87181 65.4059 8.80636 65.1314 8.62785 64.8868C8.45529 64.6541 8.21728 64.4989 7.91976 64.4273C7.62225 64.3557 7.30093 64.4094 6.96176 64.5884C6.6464 64.7674 6.34888 64.8868 6.07517 64.9465C5.78956 65.0121 5.52179 65.0419 5.27783 65.0419C4.78991 65.0479 4.39124 64.9524 4.00447 64.7495C3.62365 64.5407 3.33208 64.2543 3.11192 63.8664C2.89176 63.4786 2.7787 63.0131 2.7787 62.4821C2.7787 61.951 2.89176 61.4916 3.10597 61.1156C3.32613 60.7397 3.62365 60.4414 3.99257 60.2325L3.98662 60.2385Z"
            fill="white" />
        <path
            d="M37.4036 58.6156C37.0526 58.2934 36.642 58.0487 36.1838 57.8996C35.1842 57.5594 33.9703 57.6132 32.9826 58.0189C32.5065 58.2158 32.0781 58.4843 31.7033 58.8245C31.6378 58.7529 31.5664 58.6872 31.5009 58.6216C31.1499 58.2994 30.7393 58.0547 30.2811 57.9055C29.2815 57.5654 28.0676 57.6191 27.0799 58.0249C26.9073 58.0965 26.7407 58.18 26.586 58.2695C26.5265 58.1562 26.4432 58.0607 26.348 57.9771C25.8779 57.5833 25.1698 57.5893 24.6998 57.9771C24.5272 58.1204 24.313 58.3948 24.313 58.8841V66.0744C24.313 66.3847 24.3963 66.6472 24.5629 66.8501C24.7236 67.053 24.9318 67.1842 25.1758 67.2499C25.4078 67.3155 25.6399 67.3155 25.872 67.2499C26.1159 67.1842 26.3242 67.053 26.4848 66.8501C26.6515 66.6472 26.7348 66.3847 26.7348 66.0744V61.981C26.7348 61.623 26.7883 61.3127 26.8835 61.0561C26.9787 60.8115 27.1156 60.6026 27.2941 60.4355C27.4726 60.2685 27.6987 60.1372 27.9605 60.0537C28.2283 59.9642 28.5377 59.9164 28.8709 59.9164C29.1684 59.9164 29.4243 59.9701 29.6207 60.0775C29.8051 60.179 29.9479 60.3401 30.055 60.5609C30.1681 60.7995 30.2216 61.1337 30.2216 61.5514V66.0744C30.2216 66.3847 30.3049 66.6472 30.4715 66.8501C30.6322 67.053 30.8405 67.1842 31.0785 67.2499C31.1975 67.2797 31.3105 67.2976 31.4295 67.2976C31.5485 67.2976 31.6616 67.2797 31.7747 67.2499C32.0186 67.1842 32.2269 67.053 32.3875 66.8501C32.5541 66.6472 32.6375 66.3847 32.6375 66.0744V61.981C32.6375 61.623 32.691 61.3127 32.7862 61.0561C32.8814 60.8055 33.0183 60.6026 33.1968 60.4355C33.3753 60.2685 33.6014 60.1372 33.8632 60.0537C34.131 59.9642 34.4404 59.9164 34.7736 59.9164C35.0771 59.9164 35.327 59.9701 35.5233 60.0775C35.7078 60.179 35.8506 60.3401 35.9577 60.5609C36.0708 60.7995 36.1243 61.1337 36.1243 61.5514V66.0744C36.1243 66.4682 36.2493 66.7725 36.5051 66.9873C36.9812 67.3931 37.6893 67.3931 38.1593 66.9873C38.4092 66.7725 38.5401 66.4622 38.5401 66.0744V61.5514C38.5401 60.901 38.439 60.3281 38.2426 59.8448C38.0463 59.3555 37.7607 58.9438 37.4036 58.6216V58.6156Z"
            fill="white" />
        <path
            d="M54.7782 58.6156C54.4272 58.2934 54.0166 58.0487 53.5584 57.8996C52.5588 57.5594 51.3449 57.6132 50.3572 58.0189C49.8811 58.2158 49.4527 58.4843 49.0779 58.8245C49.0124 58.7529 48.947 58.6872 48.8755 58.6216C48.5245 58.2994 48.1139 58.0547 47.6557 57.9055C46.6561 57.5654 45.4482 57.6191 44.4545 58.0249C44.2819 58.0965 44.1153 58.18 43.9547 58.2695C43.8952 58.1562 43.8118 58.0607 43.7166 57.9771C43.2466 57.5833 42.5385 57.5893 42.0684 57.9771C41.8125 58.186 41.6816 58.4963 41.6816 58.8841V66.0744C41.6816 66.3847 41.7649 66.6472 41.9316 66.8501C42.0922 67.053 42.3005 67.1842 42.5444 67.2499C42.7765 67.3095 43.0086 67.3095 43.2406 67.2499C43.4846 67.1842 43.6928 67.053 43.8535 66.8501C44.0201 66.6472 44.1034 66.3847 44.1034 66.0744V61.981C44.1034 61.623 44.157 61.3127 44.2522 61.0561C44.3474 60.8115 44.4842 60.6026 44.6627 60.4355C44.8412 60.2685 45.0674 60.1372 45.3292 60.0537C45.5969 59.9642 45.9063 59.9164 46.2396 59.9164C46.5371 59.9164 46.7929 59.9701 46.9893 60.0775C47.1738 60.179 47.3166 60.3401 47.4237 60.5609C47.5367 60.7995 47.5903 61.1337 47.5903 61.5514V66.0744C47.5903 66.3847 47.6736 66.6472 47.8402 66.8501C48.0009 67.053 48.2091 67.1842 48.4471 67.2499C48.5661 67.2797 48.6792 67.2976 48.7982 67.2976C48.9172 67.2976 49.0303 67.2797 49.1433 67.2499C49.3873 67.1842 49.5955 67.053 49.7562 66.8501C49.9228 66.6472 50.0061 66.3847 50.0061 66.0744V61.981C50.0061 61.623 50.0597 61.3127 50.1549 61.0561C50.2501 60.8055 50.3869 60.6026 50.5714 60.4355C50.7499 60.2685 50.976 60.1372 51.2378 60.0537C51.5056 59.9642 51.815 59.9164 52.1482 59.9164C52.4517 59.9164 52.7016 59.9701 52.898 60.0775C53.0884 60.179 53.2252 60.3401 53.3323 60.5609C53.4454 60.7995 53.4989 61.1337 53.4989 61.5514V66.0744C53.4989 66.4682 53.6239 66.7725 53.8798 66.9873C54.3558 67.3931 55.0639 67.3931 55.5339 66.9873C55.7838 66.7725 55.9148 66.4622 55.9148 66.0744V61.5514C55.9148 60.901 55.8136 60.3281 55.6172 59.8448C55.4209 59.3555 55.1353 58.9438 54.7782 58.6216V58.6156Z"
            fill="white" />
        <path
            d="M79.8173 58.7163C79.4364 58.3702 78.9902 58.1077 78.4784 57.9287C77.9727 57.7556 77.4252 57.6721 76.8362 57.6721C76.1281 57.6721 75.4557 57.8034 74.8369 58.0599C74.5869 58.1614 74.3489 58.2867 74.1228 58.4239C74.0633 58.239 73.9562 58.0898 73.8134 57.9645C73.3433 57.5587 72.6234 57.5587 72.1533 57.9645C71.9807 58.1136 71.7725 58.3941 71.7725 58.8774V66.0677C71.7725 66.378 71.8558 66.6405 72.0224 66.8434C72.183 67.0463 72.3913 67.1775 72.6353 67.2432C72.8673 67.3088 73.0994 67.3088 73.3314 67.2432C73.5754 67.1775 73.7837 67.0463 73.9443 66.8434C74.1109 66.6405 74.1942 66.378 74.1942 66.0677V62.3144C74.1942 61.9146 74.2537 61.5566 74.3787 61.2583C74.5036 60.9599 74.6643 60.7212 74.8785 60.5184C75.0927 60.3214 75.3545 60.1663 75.6521 60.0649C75.9615 59.9575 76.3125 59.9038 76.6934 59.9038C77.1277 59.9038 77.4907 59.9754 77.7763 60.1126C78.0441 60.2439 78.2464 60.4288 78.3832 60.6854C78.526 60.948 78.6034 61.2941 78.6034 61.7177V66.0677C78.6034 66.4555 78.7284 66.7658 78.9842 66.9806C79.2222 67.1835 79.5019 67.2849 79.8113 67.2849C80.1207 67.2849 80.4063 67.1835 80.6384 66.9806C80.8883 66.7658 81.0192 66.4555 81.0192 66.0677V61.7177C81.0192 61.0733 80.9121 60.5005 80.7039 59.9992C80.4956 59.498 80.1921 59.0624 79.8113 58.7163H79.8173Z"
            fill="white" />
        <path
            d="M84.601 53.8824C84.3511 54.0973 84.2202 54.4075 84.2202 54.7954V66.0671C84.2202 66.4609 84.3452 66.7652 84.601 66.98C84.839 67.1829 85.1187 67.2843 85.4281 67.2843C85.7375 67.2843 86.0232 67.1829 86.2552 66.98C86.5051 66.7652 86.636 66.4549 86.636 66.0671V54.7954C86.636 54.4075 86.5111 54.0973 86.2552 53.8824C85.7852 53.4767 85.0711 53.4767 84.5951 53.8824H84.601Z"
            fill="white" />
        <path
            d="M99.1438 58.0598C98.6678 57.6541 97.9597 57.6541 97.4896 58.0598C97.3825 58.1493 97.3052 58.2448 97.2456 58.3642C97.0076 58.2209 96.7637 58.1016 96.5019 58.0061C95.9068 57.7794 95.2523 57.666 94.5621 57.666C93.6338 57.666 92.7829 57.8689 92.0451 58.2806C91.2954 58.6864 90.6944 59.2592 90.26 59.9752C89.8256 60.6973 89.6055 61.5386 89.6055 62.4695C89.6055 63.1616 89.7304 63.818 89.9803 64.3968C90.2303 64.9875 90.5873 65.5007 91.0395 65.9303C91.4917 66.3599 92.0272 66.7001 92.6342 66.9328C93.8302 67.3982 95.3297 67.3803 96.5138 66.9924C96.7458 66.9149 96.9719 66.8254 97.1862 66.718C97.2457 66.897 97.3528 67.0461 97.4896 67.1655C97.7276 67.3684 98.0073 67.4698 98.3167 67.4698C98.6261 67.4698 98.9058 67.3684 99.1438 67.1655C99.3164 67.0163 99.5246 66.7359 99.5246 66.2525V58.9728C99.5246 58.5849 99.3997 58.2806 99.1438 58.0598ZM97.1088 62.8454C97.1088 63.2273 97.0493 63.5555 96.9303 63.8299C96.8172 64.0984 96.6506 64.3252 96.4424 64.5042C96.2222 64.6832 95.9544 64.8205 95.651 64.91C95.0143 65.0949 94.1813 65.1128 93.5327 64.8622C93.2233 64.7369 92.9495 64.5579 92.7294 64.3312C92.5033 64.1044 92.3307 63.824 92.2058 63.5137C92.0808 63.2034 92.0213 62.8513 92.0213 62.4695C92.0213 62.0876 92.0808 61.7355 92.2058 61.4252C92.3307 61.1149 92.5033 60.8464 92.7234 60.6137C92.9376 60.387 93.1995 60.2199 93.5148 60.0946C93.8302 59.9693 94.1872 59.9036 94.5621 59.9036C95.0619 59.9036 95.5141 60.011 95.8949 60.2259C96.2758 60.4347 96.5673 60.7331 96.7815 61.109C96.9957 61.4909 97.1028 61.9384 97.1028 62.4396V62.8513L97.1088 62.8454Z"
            fill="white" />
        <path
            d="M110.932 58.7163C110.551 58.3702 110.104 58.1077 109.593 57.9287C109.087 57.7556 108.539 57.6721 107.95 57.6721C107.242 57.6721 106.57 57.8034 105.951 58.0599C105.701 58.1614 105.463 58.2867 105.237 58.4239C105.178 58.239 105.07 58.0898 104.928 57.9645C104.458 57.5587 103.738 57.5587 103.268 57.9645C103.018 58.1793 102.887 58.4896 102.887 58.8774V66.0677C102.887 66.378 102.97 66.6405 103.137 66.8434C103.297 67.0463 103.506 67.1775 103.75 67.2432C103.982 67.3028 104.214 67.3028 104.446 67.2432C104.69 67.1775 104.898 67.0463 105.059 66.8434C105.225 66.6405 105.308 66.378 105.308 66.0677V62.3144C105.308 61.9146 105.374 61.5566 105.493 61.2583C105.618 60.9599 105.779 60.7153 105.993 60.5184C106.207 60.3214 106.469 60.1663 106.766 60.0649C107.076 59.9575 107.427 59.9038 107.808 59.9038C108.242 59.9038 108.605 59.9754 108.891 60.1126C109.158 60.2439 109.361 60.4288 109.497 60.6795C109.64 60.942 109.718 61.2881 109.718 61.7118V66.0617C109.718 66.4496 109.843 66.7598 110.098 66.9747C110.336 67.1775 110.616 67.279 110.926 67.279C111.235 67.279 111.521 67.1775 111.753 66.9747C112.003 66.7598 112.133 66.4496 112.133 66.0617V61.7118C112.133 61.0733 112.026 60.4945 111.818 59.9933C111.61 59.492 111.306 59.0564 110.926 58.7103L110.932 58.7163Z"
            fill="white" />
        <path
            d="M124.373 53.8651C123.903 53.4773 123.195 53.4773 122.731 53.8651C122.475 54.0799 122.35 54.3842 122.35 54.7721V58.2867C122.154 58.1793 121.951 58.0838 121.743 58.0062C121.148 57.7795 120.494 57.6661 119.803 57.6661C118.875 57.6661 118.024 57.869 117.286 58.2807C116.537 58.6865 115.936 59.2593 115.501 59.9753C115.067 60.6973 114.847 61.5387 114.847 62.4695C114.847 63.1617 114.972 63.8181 115.222 64.4028C115.471 64.9876 115.828 65.5067 116.281 65.9364C116.733 66.366 117.268 66.7061 117.875 66.9388C119.071 67.4042 120.577 67.3983 121.755 66.9687C121.981 66.8911 122.201 66.7956 122.41 66.6882C122.469 66.8911 122.576 67.0582 122.731 67.1894C122.969 67.3804 123.248 67.4818 123.558 67.4818C123.867 67.4818 124.147 67.3804 124.385 67.1775C124.558 67.0283 124.766 66.7479 124.766 66.2646V54.784C124.766 54.3962 124.635 54.0919 124.379 53.877L124.373 53.8651ZM122.344 62.6724C122.344 63.0543 122.279 63.3944 122.16 63.6868C122.047 63.9792 121.88 64.2238 121.666 64.4207C121.44 64.6236 121.184 64.7788 120.868 64.8802C120.553 64.9876 120.196 65.0473 119.815 65.0473C119.298 65.0473 118.851 64.9399 118.464 64.7131C118.084 64.4923 117.786 64.188 117.572 63.8061C117.358 63.4183 117.251 62.9648 117.251 62.4695C117.251 62.0876 117.316 61.7356 117.441 61.4253C117.566 61.115 117.739 60.8465 117.959 60.6138C118.173 60.3871 118.435 60.22 118.75 60.0947C119.065 59.9694 119.422 59.9037 119.797 59.9037C120.297 59.9037 120.749 60.0111 121.13 60.2259C121.511 60.4348 121.803 60.7212 122.017 61.1091C122.231 61.4909 122.338 61.9385 122.338 62.4397V62.6843L122.344 62.6724Z"
            fill="white" />
        <path
            d="M135.108 62.9296C134.774 62.5477 134.328 62.2314 133.775 61.9928C133.257 61.766 132.674 61.5512 132.037 61.3662C131.865 61.3185 131.662 61.2648 131.436 61.1872C131.216 61.1156 131.002 61.038 130.794 60.9485C130.609 60.871 130.46 60.7815 130.341 60.686C130.252 60.6084 130.252 60.5607 130.252 60.5428C130.252 60.4115 130.294 60.316 130.377 60.2385C130.496 60.1311 130.663 60.0475 130.865 59.9938C131.258 59.8864 131.734 59.8745 132.216 59.952C132.418 59.9819 132.632 60.0296 132.852 60.0953C133.073 60.1609 133.299 60.2385 133.501 60.316C133.882 60.495 134.227 60.5249 134.536 60.4175C134.84 60.3101 135.072 60.1191 135.203 59.8566C135.34 59.5881 135.363 59.2957 135.262 59.0033C135.161 58.7109 134.917 58.4782 134.548 58.3171C134.042 58.0903 133.531 57.9233 133.037 57.8218C131.787 57.5652 130.615 57.6369 129.699 58.0128C129.133 58.2455 128.681 58.5796 128.348 59.0033C128.009 59.4449 127.83 59.958 127.83 60.5368C127.83 61.1156 128.009 61.6407 128.354 62.0166C128.675 62.3687 129.104 62.6611 129.633 62.8938C130.133 63.1086 130.698 63.3174 131.305 63.5024C131.573 63.58 131.877 63.6755 132.216 63.7829C132.519 63.8783 132.787 64.0036 133.001 64.1528C133.192 64.2841 133.215 64.3975 133.215 64.481C133.215 64.5944 133.18 64.672 133.096 64.7436C132.977 64.839 132.817 64.9166 132.614 64.9703C132.192 65.0777 131.698 65.0837 131.139 64.9822C130.883 64.9345 130.615 64.8689 130.347 64.7794C130.08 64.6958 129.812 64.5824 129.544 64.4512C129.187 64.2781 128.848 64.2364 128.532 64.3259C128.223 64.4213 127.991 64.6003 127.836 64.8569C127.682 65.1195 127.64 65.4178 127.723 65.7102C127.813 66.0205 128.051 66.2651 128.437 66.4442C129.009 66.7186 129.598 66.9275 130.181 67.0707C130.77 67.2139 131.341 67.2855 131.877 67.2855C132.585 67.2855 133.221 67.1781 133.763 66.9573C134.322 66.7365 134.774 66.4083 135.108 65.9907C135.453 65.5551 135.625 65.0479 135.625 64.475C135.625 63.8545 135.447 63.3294 135.09 62.9236L135.108 62.9296Z"
            fill="white" />
        <path
            d="M67.6308 58.5669C66.8692 57.8986 65.8577 57.5645 64.6259 57.5645H62.9896C61.7519 57.5645 60.7404 57.9046 59.9788 58.5669C59.2052 59.2531 58.8125 60.1541 58.8125 61.264V63.5315C58.8125 64.6294 59.1993 65.5304 59.9728 66.2106C60.7285 66.8789 61.7341 67.2131 62.9539 67.2131H64.6081C65.8458 67.2131 66.8573 66.873 67.6308 66.2106C68.4103 65.5304 68.809 64.6294 68.809 63.5315V61.264C68.809 60.1601 68.4163 59.2471 67.6427 58.5669H67.6308ZM66.3039 63.4539C66.3039 63.967 66.1552 64.3609 65.8458 64.6533C65.5304 64.9516 65.1198 65.0948 64.5843 65.0948H62.9658C62.4481 65.0948 62.0435 64.9456 61.746 64.6533C61.4485 64.3609 61.3057 63.967 61.3057 63.4539V61.3177C61.3057 60.8045 61.4544 60.4107 61.7579 60.1183C62.0673 59.82 62.466 59.6768 62.9956 59.6768H64.6319C65.1496 59.6768 65.5542 59.8259 65.8636 60.1183C66.1671 60.4167 66.3158 60.8105 66.3158 61.3177V63.4539H66.3039Z"
            fill="white" />
        <path
            d="M20.2368 58.5669C19.4752 57.8986 18.4636 57.5645 17.2319 57.5645H15.5956C14.3579 57.5645 13.3464 57.9046 12.5847 58.5669C11.8112 59.2531 11.4185 60.1541 11.4185 61.264V63.5315C11.4185 64.6294 11.8052 65.5304 12.5728 66.2106C13.3285 66.8789 14.3341 67.2131 15.5539 67.2131H17.2081C18.4458 67.2131 19.4573 66.873 20.2308 66.2106C21.0163 65.5304 21.409 64.6294 21.409 63.5315V61.264C21.409 60.1601 21.0103 59.2471 20.2368 58.5669ZM18.9099 63.4539C18.9099 63.967 18.7611 64.3609 18.4517 64.6533C18.1363 64.9516 17.7198 65.0948 17.1843 65.0948H15.5658C15.0481 65.0948 14.6435 64.9456 14.352 64.6533C14.0485 64.3609 13.9057 63.967 13.9057 63.4539V61.3177C13.9057 60.8045 14.0544 60.4107 14.3579 60.1183C14.6673 59.82 15.066 59.6768 15.5956 59.6768H17.2319C17.7496 59.6768 18.1542 59.8259 18.4636 60.1183C18.7671 60.4167 18.9158 60.8105 18.9158 61.3177V63.4539H18.9099Z"
            fill="white" />
        <path
            d="M82.251 16.5407V12.2684C82.251 10.878 81.1264 9.75027 79.74 9.75027H75.789C74.4026 9.75027 73.278 8.62251 73.278 7.2322V3.04933C73.278 1.65901 72.1534 0.53125 70.767 0.53125H66.2209C64.8345 0.53125 63.7099 1.65901 63.7099 3.04933V7.08899C63.7099 8.4793 62.5853 9.60707 61.1989 9.60707H56.9385C55.5521 9.60707 54.4274 10.7348 54.4274 12.1251V16.0872C54.4274 17.4775 53.3028 18.6053 51.9164 18.6053H47.8821C46.4957 18.6053 45.3711 19.7331 45.3711 21.1234V25.0139C45.3711 26.4042 46.4957 27.532 47.8821 27.532H51.9164C53.3028 27.532 54.4274 28.6597 54.4274 30.05V34.0121C54.4274 35.4024 55.5521 36.5302 56.9385 36.5302H61.068C62.4544 36.5302 63.579 37.658 63.579 39.0483V43.2908C63.579 44.6811 64.7036 45.8089 66.09 45.8089H70.6361C72.0225 45.8089 73.1471 44.6811 73.1471 43.2908V39.1139C73.1471 37.7236 74.2717 36.5958 75.6581 36.5958H79.6091C80.9955 36.5958 82.1201 35.4681 82.1201 34.0778V29.8054C82.1201 28.4151 80.9955 27.2873 79.6091 27.2873H76.0211C74.6347 27.2873 73.51 26.1595 73.51 24.7692V21.5769C73.51 20.1866 74.6347 19.0588 76.0211 19.0588H79.74C81.1264 19.0588 82.251 17.931 82.251 16.5407ZM73.278 12.4175V15.9739C73.278 17.3642 72.1534 18.4919 70.767 18.4919H66.2209C64.8345 18.4919 63.7099 17.3642 63.7099 15.9739V12.4175C63.7099 11.0272 64.8345 9.89945 66.2209 9.89945H70.767C72.1534 9.89945 73.278 11.0272 73.278 12.4175ZM54.5643 25.0258V21.1353C54.5643 19.745 55.6889 18.6172 57.0753 18.6172H61.1156C62.502 18.6172 63.6266 19.745 63.6266 21.1353V25.0258C63.6266 26.4161 62.502 27.5439 61.1156 27.5439H57.0753C55.6889 27.5439 54.5643 26.4161 54.5643 25.0258ZM63.704 33.9405V30.3245C63.704 28.9342 64.8286 27.8064 66.215 27.8064H70.6301C72.0165 27.8064 73.1411 28.9342 73.1411 30.3245V33.9405C73.1411 35.3308 72.0165 36.4586 70.6301 36.4586H66.215C64.8286 36.4586 63.704 35.3308 63.704 33.9405Z"
            fill="white" />
    </g>
    <defs>
        <clipPath id="clip0_3888_16370">
            <rect width="136" height="68" fill="white" />
        </clipPath>
    </defs>
</svg>