<svg width="136" height="68" viewBox="0 0 136 68" fill="none" xmlns="http://www.w3.org/2000/svg">
<g clip-path="url(#clip0_2761_2116)">
<path d="M3.98662 60.2365C4.55189 59.9143 5.21833 59.8367 6.05137 60.0098C6.33103 60.0635 6.6345 60.1828 6.96771 60.3618C7.29498 60.5409 7.6163 60.5946 7.92571 60.523C8.23513 60.4514 8.47314 60.2962 8.6457 60.0635C8.82421 59.8189 8.88966 59.5384 8.83016 59.24C8.77065 58.9357 8.56834 58.6672 8.21133 58.4464C7.79481 58.1839 7.30688 57.9929 6.7654 57.8676C5.26593 57.5335 3.95091 57.6707 2.82036 58.2674C2.08252 58.6553 1.48154 59.2162 1.03527 59.9382C0.583045 60.6602 0.356934 61.5194 0.356934 62.4861C0.356934 63.4528 0.588995 64.3478 1.04717 65.0638C1.49939 65.7799 2.11227 66.3348 2.86201 66.7227C3.58795 67.0986 4.38528 67.2895 5.23618 67.2895C5.7241 67.2895 6.24773 67.2299 6.80706 67.0867C7.33663 66.9494 7.81266 66.7585 8.21728 66.5079C8.5743 66.2811 8.7766 66.0126 8.82421 65.7023C8.87181 65.404 8.80636 65.1295 8.62785 64.8848C8.45529 64.6521 8.21728 64.497 7.91976 64.4254C7.62225 64.3538 7.30093 64.4075 6.96176 64.5865C6.6464 64.7655 6.34888 64.8848 6.07517 64.9445C5.78956 65.0101 5.52179 65.04 5.27783 65.04C4.78991 65.0459 4.39124 64.9505 4.00447 64.7476C3.62365 64.5388 3.33208 64.2523 3.11192 63.8645C2.89176 63.4766 2.7787 63.0112 2.7787 62.4801C2.7787 61.9491 2.89176 61.4896 3.10597 61.1137C3.32613 60.7378 3.62365 60.4394 3.99257 60.2306L3.98662 60.2365Z" fill="#7B7B7B"/>
<path d="M37.4034 58.6137C37.0523 58.2914 36.6418 58.0468 36.1836 57.8976C35.1839 57.5575 33.9701 57.6112 32.9823 58.017C32.5063 58.2139 32.0779 58.4824 31.703 58.8225C31.6376 58.7509 31.5662 58.6853 31.5007 58.6196C31.1496 58.2974 30.7391 58.0528 30.2809 57.9036C29.2812 57.5635 28.0674 57.6172 27.0796 58.0229C26.9071 58.0945 26.7405 58.1781 26.5858 58.2676C26.5263 58.1542 26.4429 58.0587 26.3477 57.9752C25.8777 57.5814 25.1696 57.5873 24.6995 57.9752C24.527 58.1184 24.3127 58.3929 24.3127 58.8822V66.0724C24.3127 66.3827 24.396 66.6452 24.5627 66.8481C24.7233 67.051 24.9316 67.1823 25.1755 67.2479C25.4076 67.3135 25.6397 67.3135 25.8717 67.2479C26.1157 67.1823 26.3239 67.051 26.4846 66.8481C26.6512 66.6452 26.7345 66.3827 26.7345 66.0724V61.9791C26.7345 61.621 26.7881 61.3107 26.8833 61.0542C26.9785 60.8095 27.1153 60.6007 27.2938 60.4336C27.4724 60.2665 27.6985 60.1352 27.9603 60.0517C28.228 59.9622 28.5375 59.9145 28.8707 59.9145C29.1682 59.9145 29.424 59.9682 29.6204 60.0756C29.8049 60.177 29.9477 60.3381 30.0548 60.5589C30.1678 60.7976 30.2214 61.1317 30.2214 61.5494V66.0724C30.2214 66.3827 30.3047 66.6452 30.4713 66.8481C30.632 67.051 30.8402 67.1823 31.0782 67.2479C31.1972 67.2777 31.3103 67.2957 31.4293 67.2957C31.5483 67.2957 31.6614 67.2777 31.7744 67.2479C32.0184 67.1823 32.2266 67.051 32.3873 66.8481C32.5539 66.6452 32.6372 66.3827 32.6372 66.0724V61.9791C32.6372 61.621 32.6908 61.3107 32.786 61.0542C32.8812 60.8035 33.018 60.6007 33.1965 60.4336C33.375 60.2665 33.6012 60.1352 33.863 60.0517C34.1307 59.9622 34.4401 59.9145 34.7734 59.9145C35.0768 59.9145 35.3267 59.9682 35.5231 60.0756C35.7076 60.177 35.8504 60.3381 35.9575 60.5589C36.0705 60.7976 36.1241 61.1317 36.1241 61.5494V66.0724C36.1241 66.4662 36.249 66.7706 36.5049 66.9854C36.9809 67.3911 37.689 67.3911 38.1591 66.9854C38.409 66.7706 38.5399 66.4603 38.5399 66.0724V61.5494C38.5399 60.899 38.4387 60.3262 38.2424 59.8429C38.046 59.3536 37.7604 58.9418 37.4034 58.6196V58.6137Z" fill="#7B7B7B"/>
<path d="M54.7782 58.6137C54.4272 58.2914 54.0166 58.0468 53.5584 57.8976C52.5588 57.5575 51.3449 57.6112 50.3572 58.017C49.8811 58.2139 49.4527 58.4824 49.0779 58.8225C49.0124 58.7509 48.947 58.6853 48.8755 58.6196C48.5245 58.2974 48.1139 58.0528 47.6557 57.9036C46.6561 57.5635 45.4482 57.6172 44.4545 58.0229C44.2819 58.0945 44.1153 58.1781 43.9547 58.2676C43.8952 58.1542 43.8118 58.0587 43.7166 57.9752C43.2466 57.5814 42.5385 57.5873 42.0684 57.9752C41.8125 58.184 41.6816 58.4943 41.6816 58.8822V66.0724C41.6816 66.3827 41.7649 66.6452 41.9316 66.8481C42.0922 67.051 42.3005 67.1823 42.5444 67.2479C42.7765 67.3076 43.0086 67.3076 43.2406 67.2479C43.4846 67.1823 43.6928 67.051 43.8535 66.8481C44.0201 66.6452 44.1034 66.3827 44.1034 66.0724V61.9791C44.1034 61.621 44.157 61.3107 44.2522 61.0542C44.3474 60.8095 44.4842 60.6007 44.6627 60.4336C44.8412 60.2665 45.0674 60.1352 45.3292 60.0517C45.5969 59.9622 45.9063 59.9145 46.2396 59.9145C46.5371 59.9145 46.7929 59.9682 46.9893 60.0756C47.1738 60.177 47.3166 60.3381 47.4237 60.5589C47.5367 60.7976 47.5903 61.1317 47.5903 61.5494V66.0724C47.5903 66.3827 47.6736 66.6452 47.8402 66.8481C48.0009 67.051 48.2091 67.1823 48.4471 67.2479C48.5661 67.2777 48.6792 67.2957 48.7982 67.2957C48.9172 67.2957 49.0303 67.2777 49.1433 67.2479C49.3873 67.1823 49.5955 67.051 49.7562 66.8481C49.9228 66.6452 50.0061 66.3827 50.0061 66.0724V61.9791C50.0061 61.621 50.0597 61.3107 50.1549 61.0542C50.2501 60.8035 50.3869 60.6007 50.5714 60.4336C50.7499 60.2665 50.976 60.1352 51.2378 60.0517C51.5056 59.9622 51.815 59.9145 52.1482 59.9145C52.4517 59.9145 52.7016 59.9682 52.898 60.0756C53.0884 60.177 53.2252 60.3381 53.3323 60.5589C53.4454 60.7976 53.4989 61.1317 53.4989 61.5494V66.0724C53.4989 66.4662 53.6239 66.7706 53.8798 66.9854C54.3558 67.3911 55.0639 67.3911 55.5339 66.9854C55.7838 66.7706 55.9148 66.4603 55.9148 66.0724V61.5494C55.9148 60.899 55.8136 60.3262 55.6172 59.8429C55.4209 59.3536 55.1353 58.9418 54.7782 58.6196V58.6137Z" fill="#7B7B7B"/>
<path d="M79.8173 58.7153C79.4364 58.3693 78.9902 58.1067 78.4784 57.9277C77.9727 57.7547 77.4252 57.6711 76.8362 57.6711C76.1281 57.6711 75.4557 57.8024 74.8369 58.059C74.5869 58.1604 74.3489 58.2857 74.1228 58.423C74.0633 58.238 73.9562 58.0888 73.8134 57.9635C73.3433 57.5577 72.6234 57.5577 72.1533 57.9635C71.9807 58.1127 71.7725 58.3931 71.7725 58.8764V66.0667C71.7725 66.377 71.8558 66.6395 72.0224 66.8424C72.183 67.0453 72.3913 67.1766 72.6353 67.2422C72.8673 67.3078 73.0994 67.3078 73.3314 67.2422C73.5754 67.1766 73.7837 67.0453 73.9443 66.8424C74.1109 66.6395 74.1942 66.377 74.1942 66.0667V62.3134C74.1942 61.9137 74.2537 61.5556 74.3787 61.2573C74.5036 60.9589 74.6643 60.7203 74.8785 60.5174C75.0927 60.3205 75.3545 60.1653 75.6521 60.0639C75.9615 59.9565 76.3125 59.9028 76.6934 59.9028C77.1277 59.9028 77.4907 59.9744 77.7763 60.1116C78.0441 60.2429 78.2464 60.4279 78.3832 60.6845C78.526 60.947 78.6034 61.2931 78.6034 61.7167V66.0667C78.6034 66.4545 78.7284 66.7648 78.9842 66.9796C79.2222 67.1825 79.5019 67.284 79.8113 67.284C80.1207 67.284 80.4063 67.1825 80.6384 66.9796C80.8883 66.7648 81.0192 66.4545 81.0192 66.0667V61.7167C81.0192 61.0723 80.9121 60.4995 80.7039 59.9982C80.4956 59.497 80.1921 59.0614 79.8113 58.7153H79.8173Z" fill="#7B7B7B"/>
<path d="M84.6013 53.8824C84.3514 54.0973 84.2205 54.4075 84.2205 54.7954V66.0671C84.2205 66.4609 84.3454 66.7652 84.6013 66.98C84.8393 67.1829 85.119 67.2843 85.4284 67.2843C85.7378 67.2843 86.0234 67.1829 86.2555 66.98C86.5054 66.7652 86.6363 66.4549 86.6363 66.0671V54.7954C86.6363 54.4075 86.5113 54.0973 86.2555 53.8824C85.7854 53.4767 85.0714 53.4767 84.5953 53.8824H84.6013Z" fill="#7B7B7B"/>
<path d="M99.1438 58.0589C98.6678 57.6531 97.9597 57.6531 97.4896 58.0589C97.3825 58.1484 97.3052 58.2438 97.2456 58.3632C97.0076 58.22 96.7637 58.1006 96.5019 58.0052C95.9068 57.7784 95.2523 57.665 94.5621 57.665C93.6338 57.665 92.7829 57.8679 92.0451 58.2796C91.2954 58.6854 90.6944 59.2582 90.26 59.9743C89.8256 60.6963 89.6055 61.5376 89.6055 62.4685C89.6055 63.1607 89.7304 63.817 89.9803 64.3958C90.2303 64.9866 90.5873 65.4997 91.0395 65.9293C91.4917 66.359 92.0272 66.6991 92.6342 66.9318C93.8302 67.3972 95.3297 67.3793 96.5138 66.9915C96.7458 66.9139 96.9719 66.8244 97.1862 66.717C97.2457 66.896 97.3528 67.0452 97.4896 67.1645C97.7276 67.3674 98.0073 67.4688 98.3167 67.4688C98.6261 67.4688 98.9058 67.3674 99.1438 67.1645C99.3164 67.0153 99.5246 66.7349 99.5246 66.2516V58.9718C99.5246 58.584 99.3997 58.2796 99.1438 58.0589ZM97.1088 62.8444C97.1088 63.2263 97.0493 63.5545 96.9303 63.829C96.8172 64.0975 96.6506 64.3242 96.4424 64.5032C96.2222 64.6822 95.9544 64.8195 95.651 64.909C95.0143 65.094 94.1813 65.1119 93.5327 64.8612C93.2233 64.7359 92.9495 64.5569 92.7294 64.3302C92.5033 64.1034 92.3307 63.823 92.2058 63.5127C92.0808 63.2024 92.0213 62.8504 92.0213 62.4685C92.0213 62.0866 92.0808 61.7345 92.2058 61.4243C92.3307 61.114 92.5033 60.8455 92.7234 60.6127C92.9376 60.386 93.1995 60.2189 93.5148 60.0936C93.8302 59.9683 94.1872 59.9027 94.5621 59.9027C95.0619 59.9027 95.5141 60.0101 95.8949 60.2249C96.2758 60.4337 96.5673 60.7321 96.7815 61.108C96.9957 61.4899 97.1028 61.9374 97.1028 62.4386V62.8504L97.1088 62.8444Z" fill="#7B7B7B"/>
<path d="M110.931 58.7153C110.55 58.3693 110.104 58.1067 109.592 57.9277C109.087 57.7547 108.539 57.6711 107.95 57.6711C107.242 57.6711 106.57 57.8024 105.951 58.059C105.701 58.1604 105.463 58.2857 105.237 58.423C105.177 58.238 105.07 58.0888 104.927 57.9635C104.457 57.5577 103.737 57.5577 103.267 57.9635C103.017 58.1783 102.886 58.4886 102.886 58.8764V66.0667C102.886 66.377 102.97 66.6395 103.136 66.8424C103.297 67.0453 103.505 67.1766 103.749 67.2422C103.981 67.3019 104.213 67.3019 104.445 67.2422C104.689 67.1766 104.898 67.0453 105.058 66.8424C105.225 66.6395 105.308 66.377 105.308 66.0667V62.3134C105.308 61.9137 105.374 61.5556 105.493 61.2573C105.618 60.9589 105.778 60.7143 105.993 60.5174C106.207 60.3205 106.469 60.1653 106.766 60.0639C107.075 59.9565 107.427 59.9028 107.807 59.9028C108.242 59.9028 108.605 59.9744 108.89 60.1116C109.158 60.2429 109.36 60.4279 109.497 60.6785C109.64 60.941 109.717 61.2871 109.717 61.7108V66.0607C109.717 66.4486 109.842 66.7589 110.098 66.9737C110.336 67.1766 110.616 67.278 110.925 67.278C111.235 67.278 111.52 67.1766 111.752 66.9737C112.002 66.7589 112.133 66.4486 112.133 66.0607V61.7108C112.133 61.0723 112.026 60.4935 111.818 59.9923C111.61 59.4911 111.306 59.0555 110.925 58.7094L110.931 58.7153Z" fill="#7B7B7B"/>
<path d="M124.373 53.8641C123.903 53.4763 123.195 53.4763 122.731 53.8641C122.475 54.0789 122.35 54.3833 122.35 54.7711V58.2857C122.154 58.1783 121.951 58.0828 121.743 58.0052C121.148 57.7785 120.494 57.6651 119.803 57.6651C118.875 57.6651 118.024 57.868 117.286 58.2797C116.537 58.6855 115.936 59.2583 115.501 59.9744C115.067 60.6964 114.847 61.5377 114.847 62.4686C114.847 63.1607 114.972 63.8171 115.222 64.4019C115.471 64.9866 115.828 65.5058 116.281 65.9354C116.733 66.365 117.268 66.7051 117.875 66.9378C119.071 67.4033 120.577 67.3973 121.755 66.9677C121.981 66.8901 122.201 66.7946 122.41 66.6872C122.469 66.8901 122.576 67.0572 122.731 67.1885C122.969 67.3794 123.248 67.4808 123.558 67.4808C123.867 67.4808 124.147 67.3794 124.385 67.1765C124.558 67.0274 124.766 66.7469 124.766 66.2636V54.7831C124.766 54.3952 124.635 54.0909 124.379 53.8761L124.373 53.8641ZM122.344 62.6714C122.344 63.0533 122.279 63.3934 122.16 63.6858C122.047 63.9782 121.88 64.2229 121.666 64.4198C121.44 64.6226 121.184 64.7778 120.868 64.8792C120.553 64.9866 120.196 65.0463 119.815 65.0463C119.298 65.0463 118.851 64.9389 118.464 64.7122C118.084 64.4914 117.786 64.1871 117.572 63.8052C117.358 63.4173 117.251 62.9638 117.251 62.4686C117.251 62.0867 117.316 61.7346 117.441 61.4243C117.566 61.114 117.739 60.8455 117.959 60.6128C118.173 60.3861 118.435 60.219 118.75 60.0937C119.065 59.9684 119.422 59.9027 119.797 59.9027C120.297 59.9027 120.749 60.0102 121.13 60.225C121.511 60.4338 121.803 60.7202 122.017 61.1081C122.231 61.49 122.338 61.9375 122.338 62.4387V62.6834L122.344 62.6714Z" fill="#7B7B7B"/>
<path d="M135.107 62.9276C134.774 62.5457 134.328 62.2295 133.774 61.9908C133.257 61.7641 132.674 61.5493 132.037 61.3643C131.864 61.3165 131.662 61.2628 131.436 61.1853C131.216 61.1137 131.002 61.0361 130.793 60.9466C130.609 60.869 130.46 60.7795 130.341 60.684C130.252 60.6065 130.252 60.5587 130.252 60.5408C130.252 60.4096 130.294 60.3141 130.377 60.2365C130.496 60.1291 130.662 60.0456 130.865 59.9919C131.257 59.8845 131.734 59.8725 132.215 59.9501C132.418 59.9799 132.632 60.0277 132.852 60.0933C133.072 60.1589 133.298 60.2365 133.501 60.3141C133.882 60.4931 134.227 60.5229 134.536 60.4155C134.84 60.3081 135.072 60.1172 135.203 59.8546C135.339 59.5861 135.363 59.2937 135.262 59.0013C135.161 58.709 134.917 58.4762 134.548 58.3151C134.042 58.0884 133.531 57.9213 133.037 57.8199C131.787 57.5633 130.615 57.6349 129.699 58.0108C129.133 58.2435 128.681 58.5777 128.348 59.0013C128.009 59.4429 127.83 59.9561 127.83 60.5349C127.83 61.1137 128.009 61.6388 128.354 62.0147C128.675 62.3667 129.103 62.6591 129.633 62.8918C130.133 63.1066 130.698 63.3155 131.305 63.5005C131.573 63.578 131.876 63.6735 132.215 63.7809C132.519 63.8764 132.787 64.0017 133.001 64.1509C133.191 64.2821 133.215 64.3955 133.215 64.4791C133.215 64.5924 133.179 64.67 133.096 64.7416C132.977 64.8371 132.816 64.9146 132.614 64.9683C132.192 65.0758 131.698 65.0817 131.138 64.9803C130.883 64.9325 130.615 64.8669 130.347 64.7774C130.079 64.6939 129.812 64.5805 129.544 64.4492C129.187 64.2762 128.848 64.2344 128.532 64.3239C128.223 64.4194 127.991 64.5984 127.836 64.855C127.681 65.1175 127.64 65.4159 127.723 65.7083C127.812 66.0185 128.05 66.2632 128.437 66.4422C129.008 66.7167 129.597 66.9255 130.18 67.0687C130.77 67.2119 131.341 67.2835 131.876 67.2835C132.584 67.2835 133.221 67.1761 133.763 66.9554C134.322 66.7346 134.774 66.4064 135.107 65.9887C135.452 65.5531 135.625 65.0459 135.625 64.4731C135.625 63.8525 135.447 63.3274 135.089 62.9217L135.107 62.9276Z" fill="#7B7B7B"/>
<path d="M67.6311 58.5659C66.8695 57.8976 65.8579 57.5635 64.6262 57.5635H62.9899C61.7522 57.5635 60.7406 57.9036 59.979 58.5659C59.2055 59.2521 58.8127 60.1532 58.8127 61.263V63.5305C58.8127 64.6284 59.1995 65.5294 59.9731 66.2097C60.7287 66.878 61.7343 67.2121 62.9542 67.2121H64.6083C65.846 67.2121 66.8576 66.872 67.6311 66.2097C68.4106 65.5294 68.8092 64.6284 68.8092 63.5305V61.263C68.8092 60.1591 68.4165 59.2462 67.643 58.5659H67.6311ZM66.3042 63.4529C66.3042 63.9661 66.1554 64.3599 65.846 64.6523C65.5306 64.9506 65.1201 65.0938 64.5845 65.0938H62.9661C62.4484 65.0938 62.0438 64.9447 61.7462 64.6523C61.4487 64.3599 61.3059 63.9661 61.3059 63.4529V61.3167C61.3059 60.8036 61.4547 60.4097 61.7581 60.1174C62.0676 59.819 62.4662 59.6758 62.9958 59.6758H64.6321C65.1498 59.6758 65.5544 59.825 65.8639 60.1174C66.1673 60.4157 66.3161 60.8095 66.3161 61.3167V63.4529H66.3042Z" fill="#7B7B7B"/>
<path d="M20.2368 58.5659C19.4752 57.8976 18.4636 57.5635 17.2319 57.5635H15.5956C14.3579 57.5635 13.3464 57.9036 12.5847 58.5659C11.8112 59.2521 11.4185 60.1532 11.4185 61.263V63.5305C11.4185 64.6284 11.8052 65.5294 12.5728 66.2097C13.3285 66.878 14.3341 67.2121 15.5539 67.2121H17.2081C18.4458 67.2121 19.4573 66.872 20.2308 66.2097C21.0163 65.5294 21.409 64.6284 21.409 63.5305V61.263C21.409 60.1591 21.0103 59.2462 20.2368 58.5659ZM18.9099 63.4529C18.9099 63.9661 18.7611 64.3599 18.4517 64.6523C18.1363 64.9506 17.7198 65.0938 17.1843 65.0938H15.5658C15.0481 65.0938 14.6435 64.9447 14.352 64.6523C14.0485 64.3599 13.9057 63.9661 13.9057 63.4529V61.3167C13.9057 60.8036 14.0544 60.4097 14.3579 60.1174C14.6673 59.819 15.066 59.6758 15.5956 59.6758H17.2319C17.7496 59.6758 18.1542 59.825 18.4636 60.1174C18.7671 60.4157 18.9158 60.8095 18.9158 61.3167V63.4529H18.9099Z" fill="#7B7B7B"/>
<path d="M82.251 16.5407V12.2684C82.251 10.878 81.1264 9.75027 79.74 9.75027H75.789C74.4026 9.75027 73.278 8.62251 73.278 7.2322V3.04933C73.278 1.65901 72.1534 0.53125 70.767 0.53125H66.2209C64.8345 0.53125 63.7099 1.65901 63.7099 3.04933V7.08899C63.7099 8.4793 62.5853 9.60707 61.1989 9.60707H56.9385C55.5521 9.60707 54.4274 10.7348 54.4274 12.1251V16.0872C54.4274 17.4775 53.3028 18.6053 51.9164 18.6053H47.8821C46.4957 18.6053 45.3711 19.7331 45.3711 21.1234V25.0139C45.3711 26.4042 46.4957 27.532 47.8821 27.532H51.9164C53.3028 27.532 54.4274 28.6597 54.4274 30.05V34.0121C54.4274 35.4024 55.5521 36.5302 56.9385 36.5302H61.068C62.4544 36.5302 63.579 37.658 63.579 39.0483V43.2908C63.579 44.6811 64.7036 45.8089 66.09 45.8089H70.6361C72.0225 45.8089 73.1471 44.6811 73.1471 43.2908V39.1139C73.1471 37.7236 74.2717 36.5958 75.6581 36.5958H79.6091C80.9955 36.5958 82.1201 35.4681 82.1201 34.0778V29.8054C82.1201 28.4151 80.9955 27.2873 79.6091 27.2873H76.0211C74.6347 27.2873 73.51 26.1595 73.51 24.7692V21.5769C73.51 20.1866 74.6347 19.0588 76.0211 19.0588H79.74C81.1264 19.0588 82.251 17.931 82.251 16.5407ZM73.278 12.4175V15.9739C73.278 17.3642 72.1534 18.4919 70.767 18.4919H66.2209C64.8345 18.4919 63.7099 17.3642 63.7099 15.9739V12.4175C63.7099 11.0272 64.8345 9.89945 66.2209 9.89945H70.767C72.1534 9.89945 73.278 11.0272 73.278 12.4175ZM54.5643 25.0258V21.1353C54.5643 19.745 55.6889 18.6172 57.0753 18.6172H61.1156C62.502 18.6172 63.6266 19.745 63.6266 21.1353V25.0258C63.6266 26.4161 62.502 27.5439 61.1156 27.5439H57.0753C55.6889 27.5439 54.5643 26.4161 54.5643 25.0258ZM63.704 33.9405V30.3245C63.704 28.9342 64.8286 27.8064 66.215 27.8064H70.6301C72.0165 27.8064 73.1411 28.9342 73.1411 30.3245V33.9405C73.1411 35.3308 72.0165 36.4586 70.6301 36.4586H66.215C64.8286 36.4586 63.704 35.3308 63.704 33.9405Z" fill="url(#paint0_linear_2761_2116)"/>
</g>
<defs>
<linearGradient id="paint0_linear_2761_2116" x1="63.8051" y1="0.805732" x2="63.8051" y2="50.0216" gradientUnits="userSpaceOnUse">
<stop stop-color="#5087B6"/>
<stop offset="1" stop-color="#78C1AD"/>
</linearGradient>
<clipPath id="clip0_2761_2116">
<rect width="136" height="68" fill="white"/>
</clipPath>
</defs>
</svg>
